HIERARCHY
ROOT Hips
{
	OFFSET -0.001795 -0.223333 0.028219
	CHANNELS 6 Xposition Yposition Zposition Zrotation Yrotation Xrotation 
	JOINT LeftUpLeg
	{
		OFFSET 0.069520 -0.091406 -0.006815
		CHANNELS 3 Zrotation Yrotation Xrotation
		JOINT LeftLeg
		{
			OFFSET 0.034277 -0.375199 -0.004496
			CHANNELS 3 Zrotation Yrotation Xrotation
			JOINT LeftFoot
			{
				OFFSET -0.013596 -0.397961 -0.043693
				CHANNELS 3 Zrotation Yrotation Xrotation
				JOINT LeftToe
				{
					OFFSET 0.026358 -0.055791 0.119288
					CHANNELS 3 Zrotation Yrotation Xrotation
					End Site
					{
						OFFSET 0.000000 0.000000 0.000000
					}
				}
			}
		}
	}
	JOINT RightUpLeg
	{
		OFFSET -0.067670 -0.090522 -0.004320
		CHANNELS 3 Zrotation Yrotation Xrotation
		JOINT RightLeg
		{
			OFFSET -0.038290 -0.382569 -0.008850
			CHANNELS 3 Zrotation Yrotation Xrotation
			JOINT RightFoot
			{
				OFFSET 0.015774 -0.398415 -0.042312
				CHANNELS 3 Zrotation Yrotation Xrotation
				JOINT RightToe
				{
					OFFSET -0.025372 -0.048144 0.123348
					CHANNELS 3 Zrotation Yrotation Xrotation
					End Site
					{
						OFFSET 0.000000 0.000000 0.000000
					}
				}
			}
		}
	}
	JOINT Spine
	{
		OFFSET -0.002533 0.108963 -0.026696
		CHANNELS 3 Zrotation Yrotation Xrotation
		JOINT Spine1
		{
			OFFSET 0.005487 0.135180 0.001092
			CHANNELS 3 Zrotation Yrotation Xrotation
			JOINT Spine2
			{
				OFFSET 0.001457 0.052922 0.025425
				CHANNELS 3 Zrotation Yrotation Xrotation
				JOINT Neck
				{
					OFFSET -0.002778 0.213870 -0.042857
					CHANNELS 3 Zrotation Yrotation Xrotation
					JOINT Head
					{
						OFFSET 0.005152 0.064970 0.051349
						CHANNELS 3 Zrotation Yrotation Xrotation
						End Site
						{
							OFFSET 0.000000 0.000000 0.000000
						}
					}
				}
				JOINT LeftShoulder
				{
					OFFSET 0.078845 0.121749 -0.034090
					CHANNELS 3 Zrotation Yrotation Xrotation
					JOINT LeftArm
					{
						OFFSET 0.090977 0.030469 -0.008868
						CHANNELS 3 Zrotation Yrotation Xrotation
						JOINT LeftForeArm
						{
							OFFSET 0.259612 -0.012772 -0.027456
							CHANNELS 3 Zrotation Yrotation Xrotation
							JOINT LeftHand
							{
								OFFSET 0.249234 0.008986 -0.001171
								CHANNELS 3 Zrotation Yrotation Xrotation
								End Site
								{
									OFFSET 0.000000 0.000000 0.000000
								}
							}
						}
					}
				}
				JOINT RightShoulder
				{
					OFFSET -0.081759 0.118833 -0.038615
					CHANNELS 3 Zrotation Yrotation Xrotation
					JOINT RightArm
					{
						OFFSET -0.096012 0.032551 -0.009143
						CHANNELS 3 Zrotation Yrotation Xrotation
						JOINT RightForeArm
						{
							OFFSET -0.253742 -0.013329 -0.021401
							CHANNELS 3 Zrotation Yrotation Xrotation
							JOINT RightHand
							{
								OFFSET -0.255298 0.007772 -0.005559
								CHANNELS 3 Zrotation Yrotation Xrotation
								End Site
								{
									OFFSET 0.000000 0.000000 0.000000
								}
							}
						}
					}
				}
			}
		}
	}
}
MOTION
Frames: 15
Frame Time: 0.050000
-0.022789 0.954826 -0.033722 -3.473116 16.584986 5.019982 5.605792 -0.326026 0.735917 4.702427 0.371124 -14.965461 -3.171994 4.257932 17.802517 0.000000 0.000000 0.000000 -1.641582 0.588665 -6.898571 -4.030690 0.310065 -2.909368 1.788611 -1.522772 22.279274 0.000000 0.000000 0.000000 -1.056890 0.109265 -5.260811 -2.786127 1.522551 -6.163081 7.351741 0.320629 -0.548723 -7.720581 6.210632 -18.863031 0.000000 0.000000 0.000000 0.645709 -0.117907 0.132032 -31.307149 -26.299346 2.612275 76.176126 -19.472286 -16.885326 0.000000 0.000000 0.000000 -6.574278 16.925917 5.296296 30.584859 60.794176 14.427457 -77.236132 59.970017 -43.178475 0.000000 0.000000 0.000000 
-0.023623 0.955055 -0.034317 -3.605637 16.897888 4.921937 5.843347 -0.352098 0.580251 4.629321 0.358513 -14.799413 -3.322819 4.087431 17.795248 0.000000 0.000000 0.000000 -1.541868 0.607724 -7.110297 -3.869933 0.332583 -2.422994 1.620168 -1.726569 22.278248 0.000000 0.000000 0.000000 -1.358499 0.099143 -5.214001 -2.641841 1.462885 -5.948926 7.305325 0.028595 -0.593244 -7.344853 6.005859 -18.617972 0.000000 0.000000 0.000000 0.910422 0.274050 0.057515 -31.074284 -25.708381 2.448401 75.462411 -20.052378 -17.077084 0.000000 0.000000 0.000000 -6.806721 16.325863 5.073315 31.539015 60.790394 14.956006 -78.716412 60.373326 -44.625973 0.000000 0.000000 0.000000 
-0.024600 0.955470 -0.034992 -3.734915 17.229842 4.863005 5.954462 -0.367092 0.493047 4.782442 0.359403 -14.850826 -3.523287 3.922263 17.951792 0.000000 0.000000 0.000000 -1.482920 0.612022 -7.144528 -3.630847 0.316052 -2.339123 1.478014 -1.919259 22.424843 0.000000 0.000000 0.000000 -1.714430 0.087297 -5.159697 -2.564103 1.434704 -5.905335 7.184176 -0.284068 -0.613818 -7.138969 5.890553 -18.276060 0.000000 0.000000 0.000000 1.316721 0.682600 0.004948 -30.930138 -25.596127 2.397482 74.979962 -20.864306 -17.510549 0.000000 0.000000 0.000000 -6.829099 15.788607 4.901835 31.782443 60.113851 14.812482 -78.779082 61.334298 -45.512377 0.000000 0.000000 0.000000 
-0.025513 0.955513 -0.035789 -3.899860 17.602610 4.834388 6.230554 -0.395694 0.448096 4.706648 0.355484 -15.088324 -3.722685 3.747220 18.084484 0.000000 0.000000 0.000000 -1.310395 0.632382 -7.298459 -3.543854 0.324043 -2.124107 1.286724 -2.154957 22.464964 0.000000 0.000000 0.000000 -1.952415 0.078867 -5.053876 -2.484525 1.416037 -6.138706 6.938404 -0.654438 -0.348116 -6.817739 5.724434 -17.982077 0.000000 0.000000 0.000000 1.908032 1.186873 -0.040529 -30.849979 -25.472221 2.323473 74.504619 -21.543602 -17.855503 0.000000 0.000000 0.000000 -6.950559 15.070944 4.657264 31.736502 59.274660 14.449264 -78.063459 62.001204 -45.511869 0.000000 0.000000 0.000000 
-0.026271 0.955686 -0.036758 -3.992088 17.768928 4.745526 6.321267 -0.406678 0.345430 4.779086 0.353086 -14.995428 -3.814880 3.657698 18.118351 0.000000 0.000000 0.000000 -1.349908 0.638396 -7.436179 -3.245822 0.310875 -1.852502 1.210902 -2.255606 22.504578 0.000000 0.000000 0.000000 -2.033863 0.075956 -4.699233 -2.490949 1.433469 -6.486767 6.661026 -0.747062 -0.065613 -6.533310 5.591954 -18.062076 0.000000 0.000000 0.000000 2.110651 1.619978 -0.130152 -30.823235 -25.392920 2.274071 74.196004 -22.365302 -18.405507 0.000000 0.000000 0.000000 -7.230568 14.408170 4.410062 31.101905 57.933218 13.638010 -77.160530 62.996646 -45.573188 0.000000 0.000000 0.000000 
-0.026862 0.955519 -0.037928 -4.029259 18.044555 4.652641 6.304452 -0.409915 0.252875 4.918015 0.352166 -14.950954 -3.956672 3.488898 18.092174 0.000000 0.000000 0.000000 -1.306588 0.649818 -7.584900 -3.222166 0.332149 -1.504736 1.050969 -2.441314 22.438360 0.000000 0.000000 0.000000 -2.042489 0.074191 -4.356195 -2.496316 1.446198 -6.686119 6.289944 -0.985440 0.270974 -6.272600 5.466737 -18.045549 0.000000 0.000000 0.000000 2.387662 1.986059 -0.186180 -30.806417 -25.426512 2.244946 74.273100 -22.845771 -18.800974 0.000000 0.000000 0.000000 -7.303691 13.798756 4.206922 30.123092 56.768397 12.707327 -75.877077 63.397584 -44.854457 0.000000 0.000000 0.000000 
-0.027398 0.955534 -0.039153 -4.083346 18.082394 4.656708 6.318439 -0.414113 0.127467 5.015445 0.355107 -14.940373 -3.984654 3.476731 18.138549 0.000000 0.000000 0.000000 -1.299894 0.659743 -7.721242 -3.121457 0.324357 -1.447798 1.039553 -2.465172 22.488928 0.000000 0.000000 0.000000 -1.970065 0.075731 -4.137340 -2.470899 1.439636 -6.780141 5.975190 -1.110575 0.537012 -6.107286 5.390646 -18.418540 0.000000 0.000000 0.000000 2.566997 2.272723 -0.236898 -30.864050 -25.128705 2.162703 74.263546 -23.580184 -19.334922 0.000000 0.000000 0.000000 -7.627527 13.318519 4.020308 29.315316 55.544707 11.886752 -75.636343 63.929422 -45.047457 0.000000 0.000000 0.000000 
-0.027941 0.955409 -0.040180 -4.118942 18.451176 4.665660 6.332931 -0.422715 0.018779 5.098844 0.354635 -15.087025 -4.189228 3.279973 18.213507 0.000000 0.000000 0.000000 -1.078938 0.682208 -7.853716 -3.416562 0.370691 -1.283649 0.830840 -2.710943 22.488467 0.000000 0.000000 0.000000 -1.883500 0.075247 -3.933042 -2.428954 1.430161 -6.842337 5.580039 -1.420098 0.771983 -5.972375 5.324870 -18.296734 0.000000 0.000000 0.000000 2.518136 2.468155 -0.304945 -30.852050 -25.155618 2.151176 74.581211 -24.243992 -19.933684 0.000000 0.000000 0.000000 -7.182887 12.813069 3.911344 28.259672 54.377136 10.959623 -75.747500 64.756635 -45.771575 0.000000 0.000000 0.000000 
-0.028526 0.955468 -0.040989 -4.151964 18.434523 4.678673 6.267896 -0.420295 -0.121773 5.311337 0.360643 -14.986038 -4.190043 3.291919 18.235895 0.000000 0.000000 0.000000 -0.994097 0.693881 -7.928902 -3.474259 0.375533 -1.310120 0.844758 -2.701069 22.536687 0.000000 0.000000 0.000000 -1.742248 0.077049 -3.700326 -2.391126 1.416771 -6.893783 5.335366 -1.473258 1.043766 -6.077955 5.396962 -18.675531 0.000000 0.000000 0.000000 2.478563 2.785340 -0.406813 -30.755863 -25.248157 2.144538 74.873819 -25.221879 -20.757411 0.000000 0.000000 0.000000 -7.205509 12.410012 3.781131 27.880311 53.332001 10.441405 -77.075012 65.519471 -47.370586 0.000000 0.000000 0.000000 
-0.029258 0.955582 -0.041595 -4.134843 18.577722 4.585365 6.199007 -0.417114 -0.191361 5.461124 0.358889 -14.832957 -4.281192 3.196589 18.242719 0.000000 0.000000 0.000000 -0.892758 0.693721 -7.844996 -3.620299 0.392613 -1.321496 0.773087 -2.785619 22.566396 0.000000 0.000000 0.000000 -1.601739 0.076087 -3.402222 -2.249352 1.371645 -7.072575 4.950257 -1.504765 1.327072 -5.963919 5.364463 -18.982905 0.000000 0.000000 0.000000 2.684974 2.821948 -0.372111 -30.847971 -25.521406 2.184888 75.302167 -25.988148 -21.562098 0.000000 0.000000 0.000000 -7.043697 12.211213 3.727631 27.380966 52.546578 9.980350 -77.642165 65.728787 -47.886961 0.000000 0.000000 0.000000 
-0.030246 0.955781 -0.042129 -4.116256 18.528953 4.504997 6.114241 -0.410420 -0.268340 5.659931 0.359906 -14.603618 -4.274765 3.211360 18.256717 0.000000 0.000000 0.000000 -0.829241 0.710251 -8.014254 -3.676057 0.422586 -0.961155 0.784628 -2.770890 22.524074 0.000000 0.000000 0.000000 -1.580197 0.073726 -3.092640 -2.160234 1.342934 -7.231663 4.701198 -1.373285 1.542979 -5.982500 5.400560 -19.152529 0.000000 0.000000 0.000000 2.961623 2.760372 -0.292974 -30.897514 -25.944137 2.257548 76.411916 -26.559101 -22.515831 0.000000 0.000000 0.000000 -7.106510 12.127143 3.685276 26.564141 52.177365 9.525170 -77.024096 65.097813 -46.748192 0.000000 0.000000 0.000000 
-0.031470 0.955935 -0.042590 -4.058402 18.705688 4.326489 6.148154 -0.415414 -0.384779 5.610188 0.343221 -14.198558 -4.367497 3.075665 18.177753 0.000000 0.000000 0.000000 -0.813171 0.703846 -7.935796 -3.683260 0.437246 -0.766287 0.687750 -2.881674 22.481630 0.000000 0.000000 0.000000 -1.419425 0.068790 -2.628405 -2.211205 1.369045 -7.317560 4.351371 -1.508418 1.672687 -6.015892 5.433705 -19.596448 0.000000 0.000000 0.000000 3.147672 2.735854 -0.247111 -30.703563 -26.444652 2.328539 77.683248 -26.846731 -23.269536 0.000000 0.000000 0.000000 -7.220551 12.204654 3.693102 25.306029 51.994440 8.918066 -76.645587 63.985394 -45.474024 0.000000 0.000000 0.000000 
-0.032873 0.956032 -0.042977 -3.928795 18.709737 4.283316 6.135903 -0.414128 -0.422870 5.527720 0.336783 -14.066144 -4.395658 3.065139 18.235946 0.000000 0.000000 0.000000 -0.886451 0.704286 -8.029354 -3.652116 0.448706 -0.527941 0.667987 -2.896462 22.386090 0.000000 0.000000 0.000000 -1.352302 0.066476 -2.453868 -2.178507 1.359694 -7.386194 4.012271 -1.359029 1.846116 -5.810556 5.352842 -19.657483 0.000000 0.000000 0.000000 3.591508 2.427621 -0.061070 -30.696574 -26.875954 2.390241 79.030053 -27.023114 -24.081887 0.000000 0.000000 0.000000 -7.393308 12.218294 3.667476 24.308210 52.100632 8.549255 -75.373523 62.727823 -43.365236 0.000000 0.000000 0.000000 
-0.034180 0.956140 -0.043210 -3.926817 18.709887 4.100556 6.083407 -0.407420 -0.393450 5.746429 0.334938 -13.838245 -4.411944 3.045535 18.224647 0.000000 0.000000 0.000000 -0.809082 0.705978 -7.985114 -3.652487 0.461970 -0.323328 0.658317 -2.899178 22.320038 0.000000 0.000000 0.000000 -1.150719 0.066926 -2.446544 -2.417381 1.433921 -6.885218 3.972713 -1.324373 1.726655 -5.697302 5.292103 -19.760607 0.000000 0.000000 0.000000 3.867661 2.425946 -0.004386 -30.460937 -27.340120 2.457605 79.693771 -26.867338 -24.234381 0.000000 0.000000 0.000000 -7.515841 12.313322 3.684727 23.195509 52.409495 8.148539 -74.411264 61.207774 -41.436758 0.000000 0.000000 0.000000 
-0.035342 0.956202 -0.043347 -3.689811 18.668769 4.054522 5.916751 -0.394132 -0.445347 5.714549 0.325454 -13.557183 -4.415161 3.035985 18.215869 0.000000 0.000000 0.000000 -1.062497 0.695674 -8.123030 -3.516910 0.470018 0.090452 0.651858 -2.891313 22.146208 0.000000 0.000000 0.000000 -1.178631 0.063623 -2.273092 -2.394421 1.435953 -7.176173 3.786938 -1.168372 2.129866 -5.545454 5.239781 -19.554085 0.000000 0.000000 0.000000 4.223438 2.414688 0.076916 -30.567339 -27.701637 2.502211 80.640131 -26.831925 -24.709608 0.000000 0.000000 0.000000 -7.858376 12.188008 3.591723 23.039431 52.797010 8.217444 -74.053726 59.953914 -40.071651 0.000000 0.000000 0.000000 
